<?xml version="1.0" encoding="UTF-8"?>
<svg xmlns="http://www.w3.org/2000/svg" xmlns:xlink="http://www.w3.org/1999/xlink" width="207pt" height="76pt" viewBox="0 0 207 76" version="1.1">
<g id="surface1">
<path style=" stroke:none;fill-rule:nonzero;fill:rgb(98.823529%,89.019608%,0.392157%);fill-opacity:1;" d="M 178.542969 63.222656 L 180.777344 63.222656 L 180.777344 54.640625 L 183.496094 54.640625 L 183.496094 52.6875 L 175.894531 52.6875 L 175.894531 54.640625 L 178.613281 54.640625 L 178.613281 63.222656 Z M 172.753906 52.6875 L 172.753906 59.804688 L 167.664062 52.6875 L 165.363281 52.6875 L 165.363281 63.222656 L 167.457031 63.222656 L 167.457031 56.175781 L 172.546875 63.222656 L 174.847656 63.222656 L 174.847656 52.6875 Z M 157.691406 63.222656 L 163.757812 63.222656 L 163.757812 61.269531 L 159.921875 61.269531 L 159.921875 58.757812 L 163.410156 58.757812 L 163.410156 56.804688 L 159.921875 56.804688 L 159.921875 54.640625 L 163.757812 54.640625 L 163.757812 52.6875 L 157.691406 52.6875 Z M 156.296875 63.222656 L 154.902344 52.6875 L 152.113281 52.6875 L 149.320312 60.570312 L 146.53125 52.6875 L 143.742188 52.6875 L 142.347656 63.222656 L 144.441406 63.222656 L 145.417969 55.828125 L 147.996094 63.292969 L 150.578125 63.292969 L 153.226562 55.894531 L 154.203125 63.292969 L 156.296875 63.292969 Z M 135.304688 63.222656 L 141.371094 63.222656 L 141.371094 61.269531 L 137.535156 61.269531 L 137.535156 58.757812 L 141.023438 58.757812 L 141.023438 56.804688 L 137.535156 56.804688 L 137.535156 54.640625 L 141.371094 54.640625 L 141.371094 52.6875 L 135.304688 52.6875 Z M 129.585938 63.433594 C 131.050781 63.433594 132.375 63.082031 133.558594 62.246094 L 133.558594 57.363281 L 129.933594 57.363281 L 129.933594 59.316406 L 131.46875 59.316406 L 131.46875 61.269531 C 130.980469 61.476562 130.351562 61.546875 129.722656 61.546875 C 127.421875 61.546875 126.097656 60.222656 126.097656 58.058594 C 126.097656 55.828125 127.492188 54.429688 129.792969 54.429688 C 131.257812 54.429688 132.582031 54.988281 133.28125 55.894531 L 133.28125 53.453125 C 132.375 52.828125 131.1875 52.476562 129.863281 52.476562 C 126.304688 52.476562 123.863281 54.78125 123.863281 58.128906 C 123.863281 61.339844 126.097656 63.433594 129.585938 63.433594 M 117.238281 58.964844 L 118.703125 54.917969 L 120.167969 58.964844 Z M 121.632812 63.222656 L 124.074219 63.222656 L 120.097656 52.6875 L 117.308594 52.6875 L 113.332031 63.222656 L 115.707031 63.222656 L 116.613281 60.78125 L 120.796875 60.78125 Z M 110.40625 52.6875 L 110.40625 59.804688 L 105.3125 52.6875 L 103.011719 52.6875 L 103.011719 63.222656 L 105.105469 63.222656 L 105.105469 56.175781 L 110.195312 63.222656 L 112.496094 63.222656 L 112.496094 52.6875 Z M 95.269531 58.964844 L 96.734375 54.917969 L 98.199219 58.964844 Z M 99.734375 63.222656 L 102.175781 63.222656 L 98.199219 52.6875 L 95.410156 52.6875 L 91.363281 63.222656 L 93.734375 63.222656 L 94.640625 60.78125 L 98.828125 60.78125 Z M 90.875 63.222656 L 89.480469 52.6875 L 86.691406 52.6875 L 83.902344 60.570312 L 81.113281 52.6875 L 78.324219 52.6875 L 76.925781 63.222656 L 79.019531 63.222656 L 79.996094 55.828125 L 82.578125 63.292969 L 85.15625 63.292969 L 87.808594 55.894531 L 88.785156 63.292969 L 90.875 63.292969 Z M 90.875 63.222656 "/>
<path style=" stroke:none;fill-rule:nonzero;fill:rgb(98.823529%,89.019608%,0.392157%);fill-opacity:1;" d="M 175.335938 45.5 C 174.429688 45.5 173.800781 45.011719 173.800781 44.175781 C 173.800781 43.546875 174.152344 43.128906 174.847656 42.710938 L 177.011719 44.941406 C 176.382812 45.292969 175.894531 45.5 175.335938 45.5 M 175.335938 40.476562 C 174.847656 39.917969 174.707031 39.5 174.707031 39.082031 C 174.707031 38.382812 175.128906 37.964844 175.753906 37.964844 C 176.382812 37.964844 176.730469 38.3125 176.730469 38.871094 C 176.800781 39.359375 176.382812 39.777344 175.335938 40.476562 M 175.195312 47.246094 C 176.171875 47.246094 177.148438 46.894531 178.195312 46.199219 C 178.476562 46.476562 178.753906 46.757812 179.03125 47.105469 L 181.613281 47.105469 L 179.589844 45.011719 C 180.078125 44.59375 180.566406 44.105469 181.125 43.617188 L 181.125 41.175781 C 180.148438 42.082031 179.171875 42.917969 178.335938 43.6875 C 177.21875 42.570312 176.730469 42.082031 176.382812 41.664062 C 177.777344 40.757812 178.613281 39.917969 178.613281 38.734375 C 178.613281 37.335938 177.5 36.359375 175.894531 36.359375 C 174.082031 36.359375 172.753906 37.476562 172.753906 39.152344 C 172.753906 39.917969 173.035156 40.617188 173.664062 41.453125 C 172.476562 42.222656 171.710938 43.058594 171.710938 44.3125 C 171.78125 45.988281 173.242188 47.246094 175.195312 47.246094 M 164.734375 47.246094 C 166.199219 47.246094 167.523438 46.894531 168.640625 46.128906 L 168.640625 41.3125 L 165.015625 41.3125 L 165.015625 43.199219 L 166.546875 43.199219 L 166.546875 45.082031 C 166.058594 45.292969 165.433594 45.359375 164.875 45.359375 C 162.644531 45.359375 161.246094 44.035156 161.246094 41.871094 C 161.246094 39.640625 162.644531 38.3125 164.945312 38.3125 C 166.410156 38.3125 167.664062 38.871094 168.363281 39.777344 L 168.363281 37.335938 C 167.457031 36.710938 166.269531 36.429688 164.945312 36.429688 C 161.386719 36.429688 159.015625 38.664062 159.015625 42.011719 C 159.085938 45.152344 161.316406 47.246094 164.734375 47.246094 M 156.085938 36.640625 L 156.085938 43.6875 L 151.066406 36.640625 L 148.832031 36.640625 L 148.832031 47.035156 L 150.855469 47.035156 L 150.855469 40.058594 L 155.878906 47.035156 L 158.109375 47.035156 L 158.109375 36.640625 Z M 144.648438 46.964844 L 146.8125 46.964844 L 146.8125 36.640625 L 144.648438 36.640625 Z M 138.234375 41.105469 L 138.234375 38.382812 L 139.347656 38.382812 C 140.253906 38.382812 140.882812 38.871094 140.882812 39.710938 C 140.882812 40.546875 140.253906 41.105469 139.277344 41.105469 Z M 140.671875 42.570312 C 142.136719 42.152344 143.042969 41.035156 143.042969 39.570312 C 143.042969 37.753906 141.71875 36.570312 139.695312 36.570312 L 136.140625 36.570312 L 136.140625 46.964844 L 138.300781 46.964844 L 138.300781 42.78125 L 138.441406 42.78125 L 141.300781 46.964844 L 143.953125 46.964844 Z M 128.816406 46.964844 L 134.816406 46.964844 L 134.816406 45.011719 L 130.980469 45.011719 L 130.980469 42.570312 L 134.464844 42.570312 L 134.464844 40.6875 L 130.980469 40.6875 L 130.980469 38.59375 L 134.816406 38.59375 L 134.816406 36.640625 L 128.816406 36.640625 Z M 121.5625 46.964844 L 127.5625 46.964844 L 127.5625 45.011719 L 123.726562 45.011719 L 123.726562 42.570312 L 127.214844 42.570312 L 127.214844 40.6875 L 123.726562 40.6875 L 123.726562 38.59375 L 127.5625 38.59375 L 127.5625 36.640625 L 121.5625 36.640625 Z M 117.9375 36.640625 L 117.9375 43.6875 L 112.914062 36.640625 L 110.683594 36.640625 L 110.683594 47.035156 L 112.707031 47.035156 L 112.707031 40.058594 L 117.726562 47.035156 L 119.960938 47.035156 L 119.960938 36.640625 Z M 106.429688 46.964844 L 108.589844 46.964844 L 108.589844 36.640625 L 106.429688 36.640625 Z M 100.78125 47.246094 C 102.246094 47.246094 103.570312 46.894531 104.6875 46.128906 L 104.6875 41.3125 L 101.058594 41.3125 L 101.058594 43.199219 L 102.59375 43.199219 L 102.59375 45.082031 C 102.105469 45.292969 101.476562 45.359375 100.917969 45.359375 C 98.6875 45.359375 97.292969 44.035156 97.292969 41.871094 C 97.292969 39.640625 98.6875 38.3125 100.988281 38.3125 C 102.453125 38.3125 103.710938 38.871094 104.40625 39.777344 L 104.40625 37.335938 C 103.5 36.710938 102.3125 36.429688 100.988281 36.429688 C 97.433594 36.429688 95.0625 38.664062 95.0625 42.011719 C 95.128906 45.152344 97.292969 47.246094 100.78125 47.246094 M 91.78125 36.640625 L 91.78125 43.6875 L 86.761719 36.640625 L 84.53125 36.640625 L 84.53125 47.035156 L 86.550781 47.035156 L 86.550781 40.058594 L 91.574219 47.035156 L 93.804688 47.035156 L 93.804688 36.640625 Z M 76.859375 46.964844 L 82.855469 46.964844 L 82.855469 45.011719 L 79.019531 45.011719 L 79.019531 42.570312 L 82.507812 42.570312 L 82.507812 40.6875 L 79.019531 40.6875 L 79.019531 38.59375 L 82.855469 38.59375 L 82.855469 36.640625 L 76.859375 36.640625 Z M 76.859375 46.964844 "/>
<path style=" stroke:none;fill-rule:nonzero;fill:rgb(98.823529%,89.019608%,0.392157%);fill-opacity:1;" d="M 173.800781 30.640625 L 179.519531 30.640625 L 179.519531 28.753906 L 175.894531 28.753906 L 175.894531 20.453125 L 173.730469 20.453125 L 173.730469 30.640625 Z M 166.339844 26.523438 L 167.734375 22.617188 L 169.128906 26.523438 Z M 170.59375 30.640625 L 172.964844 30.640625 L 169.128906 20.453125 L 166.410156 20.453125 L 162.503906 30.640625 L 164.804688 30.640625 L 165.640625 28.265625 L 169.6875 28.265625 Z M 159.574219 30.640625 L 161.734375 30.640625 L 161.734375 20.453125 L 159.574219 20.453125 Z M 153.296875 24.847656 L 153.296875 22.195312 L 154.414062 22.195312 C 155.320312 22.195312 155.878906 22.683594 155.878906 23.453125 C 155.878906 24.289062 155.25 24.847656 154.273438 24.847656 Z M 155.667969 26.3125 C 157.0625 25.894531 157.96875 24.777344 157.96875 23.382812 C 157.96875 21.636719 156.644531 20.453125 154.691406 20.453125 L 151.203125 20.453125 L 151.203125 30.640625 L 153.296875 30.640625 L 153.296875 26.523438 L 153.4375 26.523438 L 156.226562 30.640625 L 158.808594 30.640625 Z M 145.484375 30.640625 L 147.648438 30.640625 L 147.648438 22.40625 L 150.226562 22.40625 L 150.226562 20.523438 L 142.90625 20.523438 L 142.90625 22.40625 L 145.484375 22.40625 Z M 138.71875 30.847656 C 141.09375 30.847656 142.554688 29.59375 142.554688 27.570312 C 142.554688 26.105469 141.789062 25.265625 139.90625 24.707031 C 138.582031 24.289062 137.535156 24.21875 137.535156 23.242188 C 137.535156 22.546875 138.09375 22.125 139.070312 22.125 C 140.117188 22.125 141.09375 22.546875 141.929688 23.242188 L 141.929688 20.941406 C 141.09375 20.523438 140.046875 20.242188 139 20.242188 C 136.769531 20.242188 135.371094 21.429688 135.371094 23.382812 C 135.371094 24.917969 136.140625 25.824219 137.953125 26.382812 C 139.207031 26.800781 140.324219 26.800781 140.324219 27.847656 C 140.324219 28.546875 139.765625 28.964844 138.71875 28.964844 C 137.675781 28.964844 136.417969 28.546875 135.582031 27.777344 L 135.582031 30.082031 C 136.488281 30.640625 137.675781 30.847656 138.71875 30.847656 M 129.792969 30.917969 C 132.375 30.917969 134.117188 29.175781 134.117188 26.660156 L 134.117188 20.523438 L 131.957031 20.523438 L 131.957031 26.800781 C 131.957031 28.128906 131.1875 29.035156 129.863281 29.035156 C 128.609375 29.035156 127.839844 28.195312 127.839844 26.871094 L 127.839844 20.523438 L 125.679688 20.523438 L 125.679688 26.941406 C 125.679688 29.3125 127.351562 30.917969 129.792969 30.917969 M 117.378906 28.753906 L 117.378906 22.335938 L 119.121094 22.335938 C 121.074219 22.335938 122.261719 23.523438 122.261719 25.40625 C 122.261719 27.429688 121.003906 28.683594 118.984375 28.683594 L 117.378906 28.683594 Z M 115.21875 30.640625 L 118.773438 30.640625 C 122.121094 30.640625 124.492188 28.476562 124.492188 25.335938 C 124.492188 22.40625 122.46875 20.523438 119.261719 20.523438 L 115.21875 20.523438 Z M 111.3125 20.453125 L 111.3125 27.289062 L 106.359375 20.453125 L 104.128906 20.453125 L 104.128906 30.640625 L 106.148438 30.640625 L 106.148438 23.800781 L 111.03125 30.640625 L 113.265625 30.640625 L 113.265625 20.453125 Z M 100.152344 30.640625 L 102.3125 30.640625 L 102.3125 20.453125 L 100.152344 20.453125 Z M 88.921875 30.640625 L 91.085938 30.640625 L 91.085938 26.523438 L 94.292969 26.523438 L 94.292969 24.707031 L 91.085938 24.707031 L 91.085938 22.40625 L 94.640625 22.40625 L 94.640625 20.523438 L 88.921875 20.523438 Z M 82.226562 28.964844 C 80.273438 28.964844 79.019531 27.707031 79.019531 25.617188 C 79.019531 23.523438 80.273438 22.195312 82.226562 22.195312 C 84.179688 22.195312 85.367188 23.453125 85.367188 25.546875 C 85.4375 27.640625 84.179688 28.964844 82.226562 28.964844 M 82.089844 30.847656 C 85.367188 30.847656 87.597656 28.617188 87.597656 25.40625 C 87.597656 22.265625 85.507812 20.242188 82.367188 20.242188 C 79.089844 20.242188 76.859375 22.476562 76.859375 25.683594 C 76.859375 28.824219 78.878906 30.847656 82.089844 30.847656 "/>
<path style=" stroke:none;fill-rule:nonzero;fill:rgb(98.823529%,89.019608%,0.392157%);fill-opacity:1;" d="M 171.082031 4.40625 L 168.851562 8.101562 L 166.546875 4.40625 L 164.039062 4.40625 L 167.734375 10.195312 L 167.734375 14.730469 L 169.964844 14.730469 L 169.964844 10.195312 L 173.523438 4.40625 Z M 158.667969 14.800781 L 160.828125 14.800781 L 160.828125 6.359375 L 163.480469 6.359375 L 163.480469 4.40625 L 156.015625 4.40625 L 156.015625 6.359375 L 158.667969 6.359375 Z M 151.066406 14.800781 L 156.925781 14.800781 L 156.925781 12.847656 L 153.226562 12.847656 L 153.226562 4.40625 L 151.066406 4.40625 Z M 144.789062 15.011719 C 147.367188 15.011719 149.183594 13.265625 149.183594 10.683594 L 149.183594 4.40625 L 147.019531 4.40625 L 147.019531 10.753906 C 147.019531 12.148438 146.183594 12.988281 144.929688 12.988281 C 143.671875 12.988281 142.835938 12.148438 142.835938 10.824219 L 142.835938 4.40625 L 140.671875 4.40625 L 140.671875 10.894531 C 140.605469 13.40625 142.207031 15.011719 144.789062 15.011719 M 136.417969 15.011719 C 137.464844 15.011719 138.511719 14.730469 139.277344 14.3125 L 139.277344 12.078125 C 138.652344 12.707031 137.746094 13.054688 136.699219 13.054688 C 134.605469 13.054688 133.28125 11.730469 133.28125 9.636719 C 133.28125 7.476562 134.605469 6.148438 136.699219 6.148438 C 137.8125 6.148438 138.71875 6.5 139.277344 7.125 L 139.277344 4.824219 C 138.511719 4.476562 137.675781 4.265625 136.628906 4.265625 C 133.28125 4.265625 131.050781 6.5 131.050781 9.777344 C 131.050781 12.917969 133.140625 15.011719 136.417969 15.011719 M 124.421875 10.613281 L 125.886719 6.636719 L 127.28125 10.613281 Z M 128.816406 14.800781 L 131.257812 14.800781 L 127.351562 4.476562 L 124.5625 4.476562 L 120.65625 14.800781 L 123.027344 14.800781 L 123.863281 12.429688 L 127.980469 12.429688 Z M 115.285156 14.800781 L 117.449219 14.800781 L 117.449219 10.613281 L 120.726562 10.613281 L 120.726562 8.730469 L 117.449219 8.730469 L 117.449219 6.359375 L 121.074219 6.359375 L 121.074219 4.40625 L 115.285156 4.40625 Z M 115.285156 14.800781 "/>
<path style=" stroke:none;fill-rule:nonzero;fill:rgb(18.039216%,70.980392%,67.843137%);fill-opacity:1;" d="M 105.59375 10.753906 L 105.59375 13.964844 L 103.289062 10.753906 L 102.59375 10.753906 L 102.59375 14.730469 L 103.152344 14.730469 L 103.152344 11.523438 L 105.382812 14.730469 L 106.082031 14.730469 L 106.082031 10.753906 Z M 99.804688 14.3125 C 98.898438 14.3125 98.269531 13.683594 98.269531 12.777344 C 98.269531 11.800781 98.898438 11.171875 99.804688 11.171875 C 100.710938 11.171875 101.339844 11.800781 101.339844 12.707031 C 101.339844 13.683594 100.710938 14.3125 99.804688 14.3125 M 99.734375 14.800781 C 100.988281 14.800781 101.824219 13.894531 101.824219 12.636719 C 101.824219 11.382812 101.058594 10.613281 99.804688 10.613281 C 98.546875 10.613281 97.640625 11.453125 97.640625 12.777344 C 97.710938 14.035156 98.476562 14.800781 99.734375 14.800781 M 95.757812 14.800781 C 96.664062 14.800781 97.222656 14.3125 97.222656 13.546875 C 97.222656 12.777344 96.59375 12.566406 96.105469 12.429688 C 95.6875 12.359375 95.128906 12.21875 95.128906 11.730469 C 95.128906 11.3125 95.410156 11.101562 95.898438 11.101562 C 96.316406 11.101562 96.734375 11.242188 97.015625 11.523438 L 97.015625 10.894531 C 96.734375 10.683594 96.246094 10.613281 95.898438 10.613281 C 95.0625 10.613281 94.503906 11.101562 94.503906 11.800781 C 94.503906 12.636719 95.128906 12.847656 95.6875 12.917969 C 96.105469 12.988281 96.664062 13.125 96.664062 13.613281 C 96.664062 14.035156 96.316406 14.242188 95.757812 14.242188 C 95.339844 14.242188 94.921875 14.101562 94.574219 13.824219 L 94.574219 14.453125 C 94.851562 14.730469 95.269531 14.800781 95.757812 14.800781 M 90.945312 14.171875 L 90.945312 11.242188 L 91.851562 11.242188 C 92.828125 11.242188 93.386719 11.800781 93.386719 12.707031 C 93.386719 13.613281 92.757812 14.242188 91.78125 14.242188 L 90.945312 14.242188 Z M 90.386719 14.730469 L 91.714844 14.730469 C 93.039062 14.730469 93.945312 13.894531 93.945312 12.636719 C 93.945312 11.453125 93.109375 10.753906 91.851562 10.753906 L 90.320312 10.753906 L 90.320312 14.730469 Z M 88.785156 14.730469 L 89.34375 14.730469 L 89.34375 10.753906 L 88.785156 10.753906 Z M 87.597656 10.753906 L 86.484375 14.171875 L 85.296875 10.753906 L 84.667969 10.753906 L 86.0625 14.730469 L 86.832031 14.730469 L 88.226562 10.753906 Z M 82.296875 13.125 L 82.996094 11.242188 L 83.691406 13.125 Z M 84.320312 14.730469 L 84.949219 14.730469 L 83.414062 10.753906 L 82.648438 10.753906 L 81.113281 14.730469 L 81.738281 14.730469 L 82.160156 13.613281 L 83.972656 13.613281 Z M 77.902344 14.171875 L 77.902344 11.242188 L 78.8125 11.242188 C 79.785156 11.242188 80.34375 11.800781 80.34375 12.707031 C 80.34375 13.613281 79.71875 14.242188 78.742188 14.242188 L 77.902344 14.242188 Z M 77.347656 14.730469 L 78.671875 14.730469 C 79.996094 14.730469 80.902344 13.894531 80.902344 12.636719 C 80.902344 11.453125 80.066406 10.753906 78.8125 10.753906 L 77.277344 10.753906 L 77.277344 14.730469 Z M 77.347656 14.730469 "/>
<path style=" stroke:none;fill-rule:nonzero;fill:rgb(18.039216%,70.980392%,67.843137%);fill-opacity:1;" d="M 105.382812 4.824219 L 106.082031 6.707031 L 104.6875 6.707031 Z M 105.035156 4.335938 L 103.5 8.3125 L 104.128906 8.3125 L 104.546875 7.195312 L 106.359375 7.195312 L 106.777344 8.3125 L 107.40625 8.3125 L 105.871094 4.335938 Z M 76.859375 4.335938 L 76.859375 4.894531 L 77.972656 4.894531 L 77.972656 8.382812 L 78.53125 8.382812 L 78.53125 4.894531 L 79.648438 4.894531 L 79.648438 4.335938 Z M 83.066406 4.335938 L 83.066406 6.007812 L 80.832031 6.007812 L 80.832031 4.335938 L 80.273438 4.335938 L 80.273438 8.3125 L 80.832031 8.3125 L 80.832031 6.5 L 83.066406 6.5 L 83.066406 8.3125 L 83.621094 8.3125 L 83.621094 4.335938 Z M 84.667969 4.335938 L 84.667969 8.3125 L 86.832031 8.3125 L 86.832031 7.753906 L 85.226562 7.753906 L 85.226562 6.5 L 86.621094 6.5 L 86.621094 5.941406 L 85.226562 5.941406 L 85.226562 4.894531 L 86.832031 4.894531 L 86.832031 4.335938 Z M 94.085938 4.335938 L 93.109375 7.683594 L 92.0625 4.335938 L 91.292969 4.335938 L 90.386719 7.683594 L 89.34375 4.335938 L 88.714844 4.335938 L 89.96875 8.3125 L 90.738281 8.3125 L 91.644531 4.964844 L 92.621094 8.3125 L 93.386719 8.3125 L 94.574219 4.335938 Z M 95.199219 8.3125 L 95.757812 8.3125 L 95.757812 4.335938 L 95.199219 4.335938 Z M 96.804688 4.335938 L 96.804688 8.3125 L 98.964844 8.3125 L 98.964844 7.753906 L 97.363281 7.753906 L 97.363281 4.265625 L 96.804688 4.265625 Z M 99.523438 4.335938 L 99.523438 8.3125 L 101.6875 8.3125 L 101.6875 7.753906 L 100.082031 7.753906 L 100.082031 4.265625 L 99.523438 4.265625 Z M 102.3125 8.3125 L 102.871094 8.3125 L 102.871094 4.335938 L 102.3125 4.335938 Z M 111.382812 4.335938 L 110.195312 7.753906 L 109.011719 4.335938 L 108.242188 4.335938 L 107.683594 8.3125 L 108.242188 8.3125 L 108.730469 5.101562 L 109.847656 8.3125 L 110.542969 8.3125 L 111.660156 5.03125 L 112.148438 8.3125 L 112.707031 8.3125 L 112.148438 4.335938 Z M 111.382812 4.335938 "/>
<path style=" stroke:none;fill-rule:nonzero;fill:rgb(59.607843%,64.313725%,68.235294%);fill-opacity:1;" d="M 194.167969 62.804688 C 193.609375 62.804688 193.332031 62.523438 193.332031 62.105469 C 193.332031 61.6875 193.679688 61.339844 194.167969 61.339844 C 194.726562 61.339844 195.003906 61.617188 195.003906 62.035156 C 195.003906 62.523438 194.726562 62.804688 194.167969 62.804688 M 194.167969 60.851562 C 193.75 60.851562 193.46875 60.640625 193.46875 60.222656 C 193.46875 59.804688 193.75 59.59375 194.167969 59.59375 C 194.585938 59.59375 194.863281 59.804688 194.863281 60.222656 C 194.863281 60.640625 194.65625 60.851562 194.167969 60.851562 M 194.167969 63.292969 C 195.074219 63.292969 195.632812 62.804688 195.632812 62.035156 C 195.632812 61.546875 195.421875 61.199219 195.003906 60.988281 C 195.351562 60.78125 195.492188 60.5 195.492188 60.082031 C 195.492188 59.453125 195.003906 59.035156 194.238281 59.035156 C 193.46875 59.035156 192.910156 59.523438 192.910156 60.152344 C 192.910156 60.570312 193.121094 60.851562 193.398438 61.058594 C 192.980469 61.269531 192.773438 61.617188 192.773438 62.105469 C 192.773438 62.875 193.261719 63.292969 194.167969 63.292969 M 190.539062 63.292969 C 191.515625 63.292969 192.214844 62.664062 192.214844 61.828125 C 192.214844 61.058594 191.726562 60.570312 191.027344 60.570312 C 190.820312 60.570312 190.679688 60.570312 190.46875 60.640625 L 190.539062 59.664062 L 192.074219 59.664062 L 192.074219 59.105469 L 190.050781 59.105469 L 189.914062 61.058594 L 190.332031 61.269531 C 190.46875 61.128906 190.679688 61.058594 190.957031 61.058594 C 191.378906 61.058594 191.65625 61.339844 191.65625 61.828125 C 191.65625 62.386719 191.238281 62.734375 190.609375 62.734375 C 190.332031 62.734375 189.984375 62.664062 189.773438 62.523438 L 189.703125 63.082031 C 189.984375 63.222656 190.261719 63.292969 190.539062 63.292969 M 188.03125 61.128906 C 187.542969 61.128906 187.261719 60.851562 187.261719 60.363281 C 187.261719 59.875 187.609375 59.59375 188.097656 59.59375 C 188.585938 59.59375 188.867188 59.875 188.867188 60.363281 C 188.867188 60.78125 188.519531 61.128906 188.03125 61.128906 M 187.261719 63.222656 L 187.960938 63.222656 C 188.308594 62.734375 188.585938 62.316406 188.796875 61.964844 C 189.285156 61.128906 189.425781 60.710938 189.425781 60.292969 C 189.425781 59.523438 188.867188 59.035156 188.097656 59.035156 C 187.261719 59.035156 186.703125 59.59375 186.703125 60.363281 C 186.703125 61.128906 187.191406 61.617188 187.960938 61.617188 C 188.097656 61.617188 188.308594 61.617188 188.449219 61.546875 C 188.097656 62.105469 187.679688 62.664062 187.261719 63.222656 M 185.378906 63.222656 L 186.007812 63.222656 L 186.007812 59.175781 L 185.519531 59.175781 C 185.378906 59.59375 185.101562 59.804688 184.683594 59.804688 L 184.683594 60.222656 L 185.378906 60.222656 Z M 185.378906 63.222656 "/>
<path style=" stroke:none;fill-rule:nonzero;fill:rgb(59.607843%,64.313725%,68.235294%);fill-opacity:1;" d="M 194.097656 56.804688 C 194.375 56.804688 194.515625 56.59375 194.515625 56.386719 C 194.515625 56.175781 194.304688 55.964844 194.097656 55.964844 C 193.820312 55.964844 193.679688 56.175781 193.679688 56.386719 C 193.609375 56.664062 193.820312 56.804688 194.097656 56.804688 M 191.867188 56.734375 L 192.421875 56.734375 L 192.421875 53.246094 L 193.539062 53.246094 L 193.539062 52.6875 L 190.679688 52.6875 L 190.679688 53.246094 L 191.796875 53.246094 L 191.796875 56.734375 Z M 188.867188 56.804688 C 189.773438 56.804688 190.332031 56.316406 190.332031 55.546875 C 190.332031 54.78125 189.703125 54.5 189.144531 54.429688 C 188.726562 54.363281 188.097656 54.222656 188.097656 53.664062 C 188.097656 53.246094 188.378906 53.035156 188.9375 53.035156 C 189.355469 53.035156 189.773438 53.175781 190.050781 53.453125 L 190.050781 52.828125 C 189.703125 52.617188 189.285156 52.546875 188.9375 52.546875 C 188.097656 52.546875 187.542969 53.035156 187.542969 53.734375 C 187.542969 54.570312 188.238281 54.78125 188.726562 54.917969 C 189.144531 54.988281 189.703125 55.128906 189.703125 55.617188 C 189.703125 56.035156 189.355469 56.316406 188.796875 56.316406 C 188.378906 56.316406 187.960938 56.175781 187.609375 55.894531 L 187.609375 56.523438 C 188.03125 56.734375 188.449219 56.804688 188.867188 56.804688 M 184.890625 56.734375 L 187.121094 56.734375 L 187.121094 56.175781 L 185.519531 56.175781 L 185.519531 54.851562 L 186.984375 54.851562 L 186.984375 54.292969 L 185.519531 54.292969 L 185.519531 53.175781 L 187.121094 53.175781 L 187.121094 52.617188 L 184.890625 52.617188 Z M 184.890625 56.734375 "/>
<path style=" stroke:none;fill-rule:nonzero;fill:rgb(98.823529%,89.019608%,0.392157%);fill-opacity:1;" d="M 19.945312 71.804688 L 19.945312 12.917969 L 22.25 13.125 C 35.777344 14.3125 48.125 17.730469 57.121094 22.753906 C 66.605469 28.128906 71.90625 35.035156 71.90625 42.359375 C 71.90625 49.6875 66.675781 56.59375 57.121094 61.964844 C 48.125 66.988281 35.777344 70.410156 22.25 71.59375 Z M 19.945312 71.804688 "/>
<path style=" stroke:none;fill-rule:nonzero;fill:rgb(18.039216%,70.980392%,67.843137%);fill-opacity:1;" d="M 15.691406 58.546875 C 40.589844 55.894531 59.074219 45.429688 59.074219 33.777344 C 59.074219 22.125 40.589844 11.730469 15.691406 9.011719 M 11.4375 63.222656 L 11.4375 4.40625 L 13.738281 4.613281 C 27.269531 5.800781 39.613281 9.21875 48.613281 14.242188 C 58.097656 19.546875 63.328125 26.523438 63.328125 33.847656 C 63.328125 41.175781 58.097656 48.082031 48.542969 53.453125 C 39.542969 58.476562 27.199219 61.898438 13.667969 63.082031 Z M 11.4375 63.222656 "/>
</g>
</svg>
